<?xml version="1.0" standalone="no"?>
<!DOCTYPE svg PUBLIC "-//W3C//DTD SVG 20010904//EN"
 "http://www.w3.org/TR/2001/REC-SVG-20010904/DTD/svg10.dtd">
<svg version="1.0" xmlns="http://www.w3.org/2000/svg"
 width="2502.000000pt" height="2502.000000pt" viewBox="0 0 2502.000000 2502.000000"
 preserveAspectRatio="xMidYMid meet">
<metadata>
Created by potrace 1.14, written by Peter Selinger 2001-2017
</metadata>
<g transform="translate(0.000000,2502.000000) scale(0.100000,-0.100000)"
fill="#000000" stroke="none">
<path d="M12397 20783 c-1 -1 -62 -4 -136 -8 -197 -9 -281 -14 -331 -20 -25
-3 -76 -7 -115 -10 -38 -3 -81 -7 -95 -10 -14 -2 -52 -7 -85 -10 -70 -7 -142
-16 -169 -21 -10 -2 -44 -6 -75 -9 -31 -4 -63 -8 -71 -10 -8 -3 -33 -7 -55
-10 -36 -5 -325 -56 -399 -70 -16 -4 -33 -8 -36 -10 -4 -2 -22 -7 -41 -10 -19
-3 -134 -31 -257 -61 -747 -184 -1500 -487 -2182 -876 -488 -279 -997 -642
-1404 -1001 -32 -29 -64 -56 -70 -62 -189 -166 -490 -466 -683 -680 -94 -105
-108 -121 -243 -285 -748 -904 -1316 -1985 -1640 -3122 -70 -245 -160 -630
-186 -797 -3 -18 -8 -43 -10 -55 -7 -34 -45 -268 -49 -301 -4 -35 -33 -273
-40 -325 -2 -19 -7 -71 -11 -115 -3 -44 -7 -96 -9 -115 -24 -235 -24 -867 0
-1280 4 -64 20 -242 31 -330 2 -19 6 -60 9 -90 3 -30 8 -73 12 -95 3 -22 7
-49 8 -60 9 -65 26 -185 30 -206 3 -13 8 -40 11 -59 3 -19 14 -80 24 -135 11
-55 22 -115 25 -132 3 -18 12 -63 21 -100 9 -38 18 -79 20 -93 3 -14 14 -61
26 -105 11 -44 22 -91 25 -105 36 -193 276 -923 386 -1172 30 -68 46 -105 71
-165 54 -129 207 -445 299 -619 264 -493 619 -1023 958 -1429 267 -319 566
-634 809 -855 46 -41 90 -82 99 -91 39 -38 325 -278 406 -341 6 -4 35 -27 65
-51 172 -135 431 -316 735 -513 133 -86 503 -291 720 -399 454 -224 811 -367
1317 -524 299 -93 771 -206 1028 -247 19 -3 46 -7 60 -10 44 -7 144 -23 190
-29 25 -3 56 -8 70 -10 14 -2 50 -7 80 -10 30 -3 89 -9 130 -15 41 -5 104 -12
140 -15 36 -3 85 -7 110 -10 50 -5 189 -14 325 -21 104 -5 703 -5 785 1 30 1
107 6 170 10 63 3 133 8 155 10 22 2 74 6 115 9 41 4 86 8 100 11 14 2 50 7
80 10 59 6 120 14 160 20 14 2 49 7 79 10 30 4 63 9 75 11 12 2 39 6 61 9 22
3 51 7 65 10 65 14 78 16 115 21 33 5 334 67 385 80 51 12 107 26 120 29 8 2
53 13 100 25 47 12 92 23 100 25 142 31 808 254 955 320 17 7 86 36 154 65
207 87 556 254 716 343 44 24 112 61 150 82 312 171 762 471 1086 726 140 109
170 135 339 279 75 64 92 79 225 200 204 186 553 555 766 810 528 634 971
1354 1294 2105 98 228 155 376 241 625 53 151 144 444 160 510 1 8 19 76 38
150 19 74 46 189 61 255 15 66 28 125 29 130 2 6 6 28 10 50 4 22 16 83 26
137 11 53 22 118 26 145 3 26 8 57 10 68 2 10 6 37 9 60 3 22 8 47 10 55 2 8
7 43 10 78 4 35 8 71 10 80 1 9 6 49 10 87 4 39 9 78 11 89 7 40 33 384 39
531 5 99 5 544 0 640 -8 181 -17 342 -20 375 -1 19 -6 73 -10 120 -9 117 -14
170 -30 300 -10 76 -14 113 -21 160 -6 46 -51 319 -58 356 -2 12 -7 39 -10 60
-4 22 -8 46 -11 54 -2 8 -6 26 -9 40 -107 571 -334 1271 -608 1875 -86 188
-258 526 -315 617 -13 21 -23 40 -23 43 0 10 -212 359 -288 475 -151 229 -375
538 -497 685 -272 329 -380 449 -640 710 -188 188 -236 233 -410 384 -71 62
-141 123 -155 135 -14 13 -90 75 -170 138 -645 509 -1328 910 -2090 1227 -353
146 -980 351 -1179 386 -19 3 -37 8 -41 10 -3 2 -17 6 -31 8 -13 3 -42 10 -64
15 -22 6 -53 13 -70 16 -16 3 -45 10 -62 15 -18 5 -33 8 -33 6 0 -3 -10 -1
-23 4 -13 5 -40 12 -61 15 -21 3 -70 13 -109 20 -40 8 -92 18 -117 21 -46 8
-66 11 -110 20 -23 4 -78 12 -143 21 -38 5 -105 13 -147 19 -19 3 -55 7 -80
10 -25 2 -65 7 -90 10 -25 3 -65 7 -90 9 -25 2 -79 7 -120 11 -201 17 -452 27
-738 29 -123 0 -224 0 -225 -1z m808 -2457 c17 -2 62 -7 100 -11 197 -19 333
-36 465 -59 36 -7 139 -24 180 -31 128 -21 514 -120 696 -179 211 -67 512
-182 704 -268 77 -34 401 -198 439 -222 20 -13 61 -36 91 -53 380 -209 952
-639 1227 -923 40 -41 76 -78 80 -83 5 -4 42 -40 83 -80 41 -39 111 -112 155
-162 44 -49 82 -92 85 -95 117 -113 496 -632 631 -864 19 -31 39 -65 44 -74
110 -184 245 -448 360 -707 27 -60 113 -282 148 -380 72 -202 187 -602 211
-730 2 -17 14 -75 26 -130 11 -54 23 -113 26 -130 2 -16 9 -55 14 -85 6 -30
13 -75 16 -100 3 -25 7 -56 10 -70 5 -30 21 -172 29 -255 3 -33 8 -80 10 -105
26 -266 26 -815 -1 -1075 -10 -104 -34 -298 -40 -330 -2 -11 -7 -45 -10 -75
-3 -30 -7 -58 -10 -61 -2 -3 -6 -26 -9 -50 -3 -24 -7 -51 -10 -59 -2 -8 -7
-28 -9 -45 -98 -569 -370 -1317 -673 -1854 -29 -51 -53 -95 -53 -97 0 -2 -16
-28 -35 -58 -19 -30 -35 -58 -35 -61 0 -3 -8 -18 -19 -33 -10 -15 -63 -94
-117 -177 -337 -513 -759 -985 -1239 -1384 -27 -23 -61 -52 -75 -64 -125 -109
-664 -481 -770 -530 -8 -4 -28 -15 -45 -26 -115 -71 -426 -229 -580 -296 -71
-30 -139 -60 -150 -65 -197 -94 -797 -282 -1075 -336 -14 -3 -33 -7 -42 -10
-18 -5 -20 -6 -138 -28 -102 -18 -340 -55 -401 -61 -24 -2 -69 -7 -99 -11
-305 -35 -946 -40 -1225 -9 -16 1 -59 6 -95 9 -107 10 -212 24 -308 41 -16 3
-44 7 -63 9 -39 5 -104 16 -128 21 -727 149 -1339 370 -1890 682 -51 29 -95
53 -97 53 -1 0 -74 44 -161 98 -477 296 -876 622 -1288 1053 -49 52 -103 110
-120 129 -16 19 -57 66 -90 105 -33 38 -63 74 -68 80 -4 5 -19 24 -33 40 -44
52 -226 296 -276 369 -133 195 -298 456 -298 471 0 2 -19 36 -43 77 -99 167
-302 601 -369 787 -10 31 -23 65 -28 76 -31 68 -156 464 -185 585 -60 246 -98
425 -119 555 -20 119 -29 183 -41 290 -3 22 -7 63 -10 90 -4 28 -8 66 -10 85
-4 40 -15 200 -20 310 -6 113 -6 597 -1 660 3 30 7 91 11 135 6 85 10 123 26
250 6 44 13 98 15 120 3 22 17 103 30 180 14 77 27 149 29 160 8 57 50 237 86
370 22 83 42 157 43 166 19 80 178 531 220 624 8 17 33 75 56 130 165 391 456
889 743 1269 78 104 219 280 237 296 3 3 18 21 34 40 81 100 346 374 487 505
199 184 499 424 709 568 134 91 444 287 455 287 3 0 24 12 48 27 85 54 427
221 602 295 336 142 711 267 965 323 8 2 62 15 120 29 58 14 121 28 140 31 19
3 53 10 75 15 22 5 62 11 89 15 27 3 51 7 55 9 3 2 31 7 61 11 30 4 57 8 60
10 3 2 37 6 75 10 39 4 78 9 89 11 10 2 51 6 90 10 39 3 82 7 96 10 14 2 81 7
150 10 69 4 126 8 128 9 5 5 713 -4 747 -9z"/>
<path d="M12856 17583 c-1 -1 -35 -4 -76 -7 -111 -9 -214 -21 -265 -32 -16 -4
-41 -8 -55 -10 -28 -3 -65 -12 -65 -14 0 -1 -11 -3 -25 -5 -14 -1 -38 -8 -55
-14 -16 -7 -31 -12 -33 -12 -5 2 -58 -12 -117 -30 -33 -11 -64 -19 -70 -20 -5
0 -14 -4 -20 -9 -5 -4 -28 -13 -50 -20 -84 -27 -323 -142 -437 -211 -45 -27
-85 -49 -90 -49 -4 0 -8 -4 -8 -8 0 -5 -10 -13 -22 -19 -21 -10 -186 -125
-231 -162 -220 -179 -403 -361 -579 -575 -10 -12 -40 -50 -68 -86 -27 -36 -53
-69 -58 -75 -4 -5 -28 -39 -52 -75 -25 -36 -48 -66 -52 -68 -5 -2 -8 -10 -8
-17 0 -7 -4 -15 -8 -17 -5 -2 -28 -36 -53 -76 -24 -40 -52 -85 -61 -100 -9
-15 -26 -44 -37 -64 -37 -67 -46 -83 -52 -88 -8 -7 -38 -74 -37 -84 0 -5 -4
-12 -10 -15 -15 -10 -129 -252 -194 -411 -47 -115 -51 -123 -54 -135 -2 -5
-24 -68 -50 -140 -41 -116 -79 -233 -89 -275 -2 -8 -4 -15 -5 -15 -1 0 -3 -7
-5 -15 -2 -8 -11 -42 -20 -75 -9 -33 -19 -71 -22 -85 -10 -49 -11 -55 -13 -55
-1 0 -3 -8 -5 -17 -2 -9 -12 -58 -24 -110 -11 -51 -23 -104 -25 -118 -3 -14
-5 -25 -6 -25 -1 0 -3 -9 -4 -20 -2 -11 -7 -42 -11 -70 -5 -27 -10 -54 -10
-60 -4 -31 -17 -114 -22 -135 -5 -27 -7 -47 -18 -150 -8 -79 -12 -93 -25 -85
-5 3 -10 3 -10 -2 0 -4 -69 -7 -152 -5 -178 2 -190 2 -243 -1 -22 -2 -52 0
-67 4 -16 4 -28 4 -28 1 0 -8 -128 -7 -136 1 -3 2 -21 1 -40 -3 -19 -4 -36 -4
-39 0 -11 17 -485 -1 -670 -25 -58 -8 -130 -17 -160 -21 -70 -8 -167 -28 -300
-59 -48 -11 -160 -49 -184 -61 -14 -8 -30 -14 -35 -14 -11 0 -138 -62 -146
-71 -3 -3 -20 -14 -39 -25 -69 -39 -167 -134 -237 -228 -24 -34 -48 -65 -52
-71 -5 -5 -15 -25 -22 -42 -8 -18 -18 -33 -22 -33 -5 0 -8 -5 -8 -11 0 -6 -11
-33 -25 -60 -13 -27 -22 -49 -18 -49 3 0 1 -6 -4 -12 -11 -13 -56 -148 -68
-203 -25 -112 -43 -210 -49 -282 -3 -23 -7 -47 -10 -52 -4 -5 -2 -12 4 -16 6
-4 7 -12 3 -18 -12 -19 -14 -76 -13 -367 0 -309 2 -360 13 -377 4 -6 3 -14 -3
-18 -7 -4 -7 -12 0 -25 7 -13 7 -21 0 -25 -6 -4 -8 -10 -5 -15 3 -4 7 -34 10
-66 11 -126 17 -181 25 -243 5 -35 9 -67 8 -70 0 -3 1 -8 2 -11 1 -3 4 -18 6
-35 9 -57 34 -180 54 -265 11 -47 22 -94 25 -106 3 -12 11 -39 19 -62 8 -22
12 -43 9 -46 -4 -3 -1 -6 5 -6 7 0 12 -11 12 -24 0 -14 5 -28 11 -31 5 -4 8
-12 6 -18 -2 -7 1 -23 8 -37 7 -14 18 -37 24 -52 6 -16 15 -38 20 -50 9 -21
102 -212 126 -259 5 -10 13 -19 17 -19 5 0 8 -5 8 -11 0 -15 114 -179 150
-218 17 -17 30 -34 30 -37 0 -9 200 -204 246 -239 63 -49 184 -135 189 -135 3
0 33 -17 67 -38 68 -40 140 -76 228 -112 30 -13 59 -27 65 -32 5 -4 17 -8 27
-8 10 0 26 -4 36 -9 25 -14 53 -23 97 -34 6 -1 15 -5 20 -9 12 -7 87 -23 98
-20 4 1 7 -3 7 -9 0 -6 6 -9 14 -6 8 3 17 3 21 -1 4 -4 10 -7 13 -8 4 0 34 -6
67 -14 33 -7 67 -14 75 -15 8 -1 23 -6 33 -10 10 -4 20 -5 23 -2 4 3 17 2 30
-3 12 -5 45 -12 71 -15 26 -4 59 -8 73 -10 126 -18 282 -33 385 -38 28 -1 55
-6 62 -10 6 -4 14 -3 18 3 4 6 11 8 16 4 6 -3 130 -7 277 -8 197 -2 267 -6
270 -14 2 -7 21 -35 43 -62 21 -27 39 -52 39 -55 0 -4 16 -23 35 -43 19 -20
35 -42 35 -49 0 -6 3 -13 8 -15 4 -1 36 -39 72 -83 35 -44 69 -85 75 -91 5 -6
30 -35 55 -64 73 -88 108 -126 240 -262 69 -71 127 -134 128 -139 2 -5 7 -9
11 -9 4 0 34 -26 67 -57 69 -66 161 -146 229 -198 14 -11 36 -29 50 -40 13
-11 32 -26 42 -33 10 -7 56 -39 103 -72 47 -33 104 -70 127 -82 24 -13 43 -25
43 -28 0 -3 -431 -5 -957 -5 -527 1 -963 -1 -970 -3 -14 -4 88 -106 159 -158
29 -21 55 -42 56 -46 2 -5 8 -8 13 -8 5 0 34 -17 66 -37 31 -20 63 -36 70 -36
7 0 13 -3 13 -7 0 -5 95 -53 110 -55 3 -1 25 -10 50 -21 48 -22 100 -38 113
-36 4 1 7 -2 7 -7 0 -5 16 -12 36 -16 20 -3 48 -11 63 -17 26 -11 37 -15 69
-22 9 -3 17 -5 17 -6 0 -1 11 -4 25 -7 39 -7 55 -11 55 -13 0 -1 7 -3 15 -5 8
-1 44 -10 79 -19 35 -9 66 -14 68 -12 3 2 20 -2 39 -10 19 -8 36 -14 39 -13 4
0 111 -13 125 -16 3 -1 19 -4 35 -8 38 -9 108 -19 210 -30 11 -2 25 -5 30 -8
6 -2 36 -4 67 -4 32 0 58 -4 58 -8 0 -5 5 -5 11 -1 6 3 61 5 122 4 62 -1 119
-1 127 -1 8 1 35 0 60 0 25 0 52 -1 60 0 8 0 89 0 180 0 91 0 172 0 180 0 8 0
116 0 240 0 124 0 232 0 240 0 8 1 35 0 60 0 25 0 52 -1 60 0 8 0 89 0 180 0
91 0 172 0 180 0 8 0 116 0 240 0 124 0 232 0 240 0 8 1 35 0 60 0 25 0 52 -1
60 0 8 0 89 0 180 0 91 0 172 0 180 0 8 0 116 0 240 0 124 0 232 0 240 0 8 1
35 0 60 0 25 0 52 -1 60 0 8 0 89 0 180 0 91 0 172 0 180 0 14 0 454 0 475 0
25 -1 203 11 230 14 109 15 151 21 155 22 3 1 28 5 55 9 85 13 99 16 125 22
14 3 38 7 55 10 16 2 77 16 135 30 58 14 114 28 125 30 11 3 27 7 35 9 8 2 15
4 15 6 0 1 9 3 20 4 11 2 59 17 108 33 48 17 90 31 92 32 14 2 43 13 70 25 97
43 126 55 135 55 5 0 10 5 10 10 0 6 3 9 8 8 10 -4 152 75 152 84 0 4 7 8 15
8 8 0 24 8 34 18 33 29 50 42 56 42 7 0 155 143 155 150 0 3 -430 5 -955 5
-910 0 -954 1 -933 17 13 10 31 20 41 24 9 3 17 10 17 15 0 5 7 9 15 9 8 0 15
5 15 10 0 6 6 10 13 10 10 0 87 55 201 142 175 134 490 441 625 608 11 14 29
34 40 45 23 24 126 148 161 195 14 18 32 41 41 52 9 10 27 34 40 53 13 19 27
35 32 35 4 0 7 7 7 15 0 8 5 15 10 15 6 0 10 7 10 15 0 8 4 15 8 15 5 0 51 60
103 133 51 72 96 134 100 137 3 3 8 10 10 15 2 6 63 99 135 207 73 108 133
200 135 205 2 4 24 40 49 78 25 39 44 73 42 78 -1 4 2 7 7 7 8 0 20 21 120
215 55 105 155 330 181 405 7 19 16 44 21 55 16 38 51 130 54 145 2 8 13 40
23 72 11 31 18 59 15 62 -4 3 -2 6 4 6 6 0 13 12 16 28 2 15 17 65 32 112 15
47 27 91 28 98 0 6 4 12 9 12 5 0 7 3 5 8 -3 4 8 57 25 117 16 61 31 119 33
130 8 35 14 59 25 100 6 22 12 54 13 70 1 17 5 32 9 35 3 3 8 19 11 35 10 50
17 87 33 155 8 36 17 81 20 100 3 19 8 46 11 60 3 14 7 36 9 50 7 50 15 97 30
170 9 41 16 86 16 100 0 14 4 30 10 37 6 7 5 14 -2 18 -6 3 -7 12 -3 18 9 14
12 28 17 82 3 22 5 40 6 40 1 0 3 17 5 39 2 21 6 57 9 80 4 23 9 62 12 87 3
24 7 60 10 79 2 19 6 62 9 95 3 33 8 85 10 115 3 30 8 91 11 135 2 44 7 116
10 160 3 44 6 188 7 319 2 278 16 253 -128 243 -22 -2 -50 0 -62 4 -12 5 -24
5 -27 1 -2 -4 -71 -6 -153 -4 -171 3 -184 2 -238 -1 -22 -2 -52 0 -67 4 -16 4
-28 5 -28 1 0 -11 -237 -8 -238 3 -5 55 -22 199 -26 221 -2 10 -9 55 -16 99
-6 44 -14 87 -17 95 -3 8 -7 26 -9 40 -1 14 -5 37 -8 53 -3 15 -8 39 -11 55
-3 15 -9 36 -12 47 -4 11 -8 26 -9 34 -5 25 -26 116 -30 131 -3 8 -5 16 -5 17
0 2 -5 17 -10 35 -6 18 -12 40 -14 48 -9 35 -54 177 -65 205 -6 17 -14 39 -16
50 -2 11 -8 29 -13 40 -10 22 -55 137 -57 145 -1 9 -15 43 -34 85 -10 22 -30
69 -45 104 -14 35 -33 75 -42 88 -8 12 -12 23 -8 23 4 0 1 7 -6 16 -7 9 -14
21 -15 28 -1 6 -25 54 -53 106 -28 52 -51 98 -51 102 0 4 -4 8 -10 8 -5 0 -10
9 -10 20 0 11 -4 20 -10 20 -5 0 -10 7 -10 15 0 8 -4 15 -10 15 -5 0 -10 6
-10 13 0 8 -18 42 -40 76 -22 34 -40 64 -40 66 0 8 -65 100 -72 103 -5 2 -8 8
-8 14 0 6 -19 36 -42 68 -24 32 -52 70 -63 86 -17 24 -109 143 -140 182 -5 7
-25 28 -42 47 -18 19 -31 35 -28 35 8 0 -87 100 -221 234 -114 115 -181 177
-261 243 -12 10 -30 25 -41 34 -72 61 -317 239 -328 239 -3 0 -10 5 -17 10
-26 22 -88 60 -98 60 -6 0 -17 6 -24 13 -28 25 -42 33 -113 67 -39 19 -72 38
-72 43 0 4 -5 7 -12 7 -6 0 -44 15 -82 34 -187 90 -463 192 -600 221 -10 3
-33 9 -50 14 -17 6 -44 12 -61 15 -16 3 -52 10 -80 16 -55 12 -153 29 -200 35
-16 2 -64 8 -105 14 -41 6 -110 13 -152 15 -43 3 -83 8 -89 12 -8 5 -9 3 -4
-6 6 -9 4 -11 -5 -5 -11 7 -237 14 -244 8z m-4292 -4774 c2 -2 6 -42 10 -89 4
-47 10 -107 14 -135 4 -27 7 -60 6 -72 -1 -13 1 -23 5 -23 3 0 7 -24 8 -53 2
-28 5 -70 8 -92 2 -22 6 -56 9 -75 2 -19 6 -51 9 -70 4 -19 13 -80 22 -135 9
-55 18 -111 21 -125 2 -14 7 -41 10 -60 2 -19 11 -69 19 -110 8 -41 17 -86 19
-100 3 -14 5 -25 6 -25 3 0 12 -60 11 -77 0 -10 3 -18 7 -18 4 0 8 -8 8 -17 1
-19 10 -74 19 -108 6 -27 46 -196 50 -215 2 -8 4 -17 6 -20 1 -3 3 -9 4 -15 2
-5 4 -12 5 -15 1 -3 3 -12 5 -20 1 -8 8 -35 15 -60 7 -25 14 -52 15 -60 2 -8
15 -53 30 -100 14 -47 28 -94 30 -105 3 -11 18 -59 34 -107 16 -49 27 -88 24
-88 -3 0 2 -10 13 -22 12 -13 13 -18 4 -13 -12 7 -13 6 -4 -6 6 -8 28 -61 49
-119 21 -58 44 -123 52 -144 8 -22 19 -49 26 -60 6 -12 12 -27 13 -34 3 -14
20 -51 117 -252 39 -80 79 -157 89 -172 l19 -27 -131 2 c-71 1 -130 4 -130 7
0 3 -21 5 -47 4 -63 -1 -245 26 -310 45 -18 5 -33 7 -33 4 0 -3 -6 0 -13 6 -8
6 -17 8 -20 5 -3 -3 -12 -2 -19 2 -7 5 -17 9 -23 9 -5 1 -18 4 -27 8 -29 11
-53 20 -58 22 -63 16 -272 118 -278 136 -2 5 -9 9 -16 9 -7 0 -28 13 -47 30
-56 48 -58 50 -62 50 -6 0 -79 72 -129 128 -92 100 -258 392 -258 452 0 11 -5
20 -10 20 -6 0 -9 3 -8 8 0 4 -2 14 -5 22 -8 20 -31 103 -32 115 0 6 -3 15 -7
20 -5 9 -12 37 -23 93 -2 13 -6 31 -9 40 -3 9 -8 33 -11 52 -3 19 -8 49 -12
65 -3 17 -7 46 -8 65 -2 19 -6 43 -10 53 -4 9 -5 23 -2 31 3 8 3 17 0 20 -3 3
-7 25 -9 48 -9 152 -16 251 -20 303 -15 199 -18 254 -18 380 0 140 26 315 46
315 5 0 7 4 4 8 -9 15 58 128 114 191 28 32 124 99 185 129 57 29 186 78 230
87 11 2 31 6 45 10 77 17 86 19 165 29 28 4 73 10 100 14 53 8 82 9 89 1z"/>
</g>
</svg>
